<svg width="46" height="46" xmlns="http://www.w3.org/2000/svg"><defs><filter x="-42.9%" y="-42.9%" width="185.7%" height="185.7%" filterUnits="objectBoundingBox" id="a"><feGaussianBlur stdDeviation="4" in="SourceGraphic"/></filter></defs><g fill="#FF4A00" fill-rule="nonzero"><path d="M17.5 14.006c0 1.01-.182 2.011-.538 2.956a8.394 8.394 0 0 1-2.956.538h-.012a8.393 8.393 0 0 1-2.956-.538 8.373 8.373 0 0 1-.538-2.956v-.012c0-1.01.181-2.01.537-2.955a8.366 8.366 0 0 1 2.957-.539h.012c1.01 0 2.011.182 2.956.538.356.945.539 1.946.538 2.956v.012Zm10.306-2.34h-8.173l5.779-5.778a14.11 14.11 0 0 0-3.3-3.3l-5.78 5.779V.195A14.066 14.066 0 0 0 14.008 0h-.014c-.793 0-1.57.068-2.326.195v8.172L5.888 2.588A13.98 13.98 0 0 0 4.101 4.1l-.003.003a14.088 14.088 0 0 0-1.51 1.785l5.779 5.779H.195S0 13.202 0 13.995v.01c0 .793.067 1.571.195 2.328h8.172l-5.78 5.779a14.1 14.1 0 0 0 3.301 3.3l5.779-5.779v8.173c.767.128 1.544.193 2.323.194h.02c.778 0 1.555-.066 2.323-.194v-8.173l5.779 5.78c.637-.454 1.234-.96 1.787-1.512l.002-.002a14.136 14.136 0 0 0 1.51-1.787l-5.778-5.779h8.173c.127-.755.193-1.531.194-2.323v-.02c0-.792-.067-1.568-.194-2.323Z" fill-opacity=".64" filter="url(#a)" transform="translate(9 9)"/><path d="M26.5 23.006c0 1.01-.182 2.011-.538 2.956a8.394 8.394 0 0 1-2.956.538h-.012a8.393 8.393 0 0 1-2.956-.538 8.373 8.373 0 0 1-.538-2.956v-.012c0-1.01.181-2.01.537-2.955a8.366 8.366 0 0 1 2.957-.539h.012c1.01 0 2.011.182 2.956.538.356.945.539 1.946.538 2.956v.012Zm10.306-2.34h-8.173l5.779-5.778a14.11 14.11 0 0 0-3.3-3.3l-5.78 5.779V9.195A14.066 14.066 0 0 0 23.008 9h-.014c-.793 0-1.57.068-2.326.195v8.172l-5.779-5.779a13.98 13.98 0 0 0-1.787 1.512l-.003.003a14.088 14.088 0 0 0-1.51 1.785l5.779 5.779H9.195S9 22.202 9 22.995v.01c0 .793.067 1.571.195 2.328h8.172l-5.78 5.779a14.1 14.1 0 0 0 3.301 3.3l5.779-5.779v8.173c.767.128 1.544.193 2.323.194h.02c.778 0 1.555-.066 2.323-.194v-8.173l5.779 5.78c.637-.454 1.234-.96 1.787-1.512l.002-.002a14.136 14.136 0 0 0 1.51-1.787l-5.778-5.779h8.173c.127-.755.193-1.531.194-2.323v-.02c0-.792-.067-1.568-.194-2.323Z"/></g></svg>