<svg xmlns="http://www.w3.org/2000/svg" xmlns:xlink="http://www.w3.org/1999/xlink" width="375" zoomAndPan="magnify" viewBox="0 0 281.25 281.249989" height="375" preserveAspectRatio="xMidYMid meet" version="1.0"><path fill="#3730a3" d="M 12.15625 212.011719 C 12.191406 162.5625 12.203125 113.507812 12.269531 64.453125 C 12.296875 41.628906 31.554688 18.976562 54.082031 15.789062 C 62.746094 14.566406 71.582031 15.546875 80.335938 15.386719 C 114.230469 14.769531 148.121094 15.125 182.011719 15.136719 C 194.105469 15.140625 206.210938 15.742188 218.285156 15.371094 C 229.808594 15.019531 239.25 19.449219 247.800781 26.421875 C 260.96875 37.167969 267.335938 51 267.214844 68.15625 C 266.996094 100.175781 266.992188 132.203125 267.382812 164.222656 C 267.582031 180.5625 267.109375 196.890625 267.132812 213.222656 C 267.160156 234.679688 252.09375 255.398438 231.871094 262.554688 C 224.367188 265.207031 216.703125 265.105469 209.0625 265.277344 C 194.054688 265.621094 179.039062 265.511719 164.027344 265.519531 C 131.054688 265.53125 98.089844 265.429688 65.121094 265.507812 C 33.621094 265.578125 12.121094 239.011719 12.15625 212.011719 M 207.828125 111.890625 C 207.160156 110.59375 206.507812 109.285156 205.816406 107.996094 C 192.699219 83.585938 171.914062 69.726562 144.75 67.5625 C 119.808594 65.574219 98.324219 74.734375 82.179688 94.515625 C 71.511719 107.585938 65.757812 122.734375 65.484375 139.585938 C 65.304688 150.566406 68.21875 161.050781 72.875 171.089844 C 86.816406 201.15625 120.070312 218.875 152.621094 213.175781 C 173.09375 209.59375 188.960938 198.625 200.5625 181.65625 C 215.347656 160.023438 218.125 136.867188 207.828125 111.890625 M 194.804688 246.113281 C 201.582031 246.105469 208.359375 246.097656 215.136719 246.085938 C 231.003906 246.054688 244.878906 234.203125 247.515625 218.527344 C 248.9375 210.070312 247.929688 201.558594 248.222656 193.074219 C 248.316406 190.351562 248.152344 187.476562 245.289062 186.214844 C 242.417969 184.957031 240.605469 187.242188 238.828125 189.019531 C 226.78125 201.03125 214.765625 213.070312 202.710938 225.070312 C 198.097656 229.664062 193.390625 234.164062 188.757812 238.738281 C 187.40625 240.074219 186.285156 241.53125 187.140625 243.664062 C 187.984375 245.769531 189.652344 246.207031 191.660156 246.109375 C 192.453125 246.070312 193.253906 246.109375 194.804688 246.113281 M 69.449219 246.15625 C 75.550781 246.132812 81.65625 246.085938 87.757812 246.097656 C 89.75 246.101562 91.539062 245.71875 92.402344 243.746094 C 93.3125 241.667969 92.007812 240.289062 90.632812 238.910156 C 73.855469 222.109375 57.113281 205.265625 40.316406 188.484375 C 38.828125 187 37.546875 184.472656 34.761719 185.769531 C 32.09375 187.019531 31.753906 189.488281 31.785156 192.179688 C 31.875 199.210938 31.867188 206.242188 31.8125 213.273438 C 31.761719 219.417969 33.433594 225.097656 36.648438 230.242188 C 44.03125 242.050781 54.863281 247.132812 69.449219 246.15625 M 244.175781 94.402344 C 248.082031 93.671875 248.152344 90.539062 248.191406 87.628906 C 248.300781 79.929688 248.402344 72.226562 248.195312 64.53125 C 247.773438 49.007812 232.695312 34.464844 217.179688 34.421875 C 208.953125 34.402344 200.722656 34.390625 192.496094 34.421875 C 190.566406 34.429688 188.261719 33.933594 187.390625 36.421875 C 186.597656 38.6875 188.105469 40.128906 189.632812 41.515625 C 206.570312 56.847656 222.039062 73.664062 238.269531 89.714844 C 239.949219 91.375 241.140625 93.589844 244.175781 94.402344 M 37.769531 47.992188 C 34.710938 52.425781 32.175781 57.234375 31.945312 62.617188 C 31.558594 71.636719 31.820312 80.683594 31.777344 89.71875 C 31.765625 91.78125 32.507812 93.394531 34.429688 94.207031 C 36.472656 95.070312 38.070312 93.988281 39.382812 92.589844 C 41.113281 90.753906 42.632812 88.722656 44.375 86.898438 C 59.320312 71.234375 74.5 55.800781 90.273438 40.960938 C 91.488281 39.820312 93.308594 38.78125 92.542969 36.710938 C 91.6875 34.394531 89.511719 34.453125 87.492188 34.453125 C 80.582031 34.441406 73.671875 34.511719 66.765625 34.421875 C 55.121094 34.269531 45.582031 38.605469 37.769531 47.992188 M 102.199219 215.269531 C 99.640625 214.023438 97.109375 213.25 95.265625 216.324219 C 93.785156 218.792969 94.945312 221.664062 98.105469 223.640625 C 98.78125 224.0625 99.492188 224.429688 100.203125 224.78125 C 118.25 233.777344 137.09375 236.765625 156.976562 232.5625 C 166.160156 230.621094 174.714844 227.195312 182.800781 222.515625 C 185.066406 221.207031 185.976562 219.058594 184.914062 216.75 C 183.769531 214.269531 181.480469 213.574219 178.859375 214.566406 C 177.246094 215.175781 175.625 215.777344 174.070312 216.519531 C 150.125 227.917969 126.367188 226.792969 102.199219 215.269531 M 135.972656 56.628906 C 139.289062 56.347656 142.589844 56.476562 145.917969 56.660156 C 157.476562 57.277344 167.855469 61.582031 177.980469 66.675781 C 180.773438 68.082031 183.183594 68.210938 184.753906 65.21875 C 186.242188 62.386719 184.710938 60.425781 182.28125 58.984375 C 170.777344 52.160156 158.339844 48.125 145.015625 47.296875 C 128.503906 46.269531 113.234375 50.886719 98.75 58.46875 C 97.703125 59.011719 96.675781 59.714844 95.851562 60.550781 C 94.390625 62.035156 94.160156 63.859375 95.210938 65.671875 C 96.1875 67.363281 97.796875 67.957031 99.65625 67.507812 C 100.800781 67.226562 101.886719 66.679688 102.960938 66.175781 C 113.238281 61.355469 123.816406 57.574219 135.972656 56.628906 M 44.015625 149.699219 C 45.289062 158.566406 48.515625 166.863281 51.515625 175.230469 C 52.542969 178.09375 54.628906 178.75 57.214844 178.152344 C 59.972656 177.519531 61.207031 175.542969 60.675781 172.78125 C 60.382812 171.242188 59.648438 169.78125 59.046875 168.308594 C 53.714844 155.257812 51.660156 141.824219 54.191406 127.816406 C 55.464844 120.746094 56.890625 113.757812 60.191406 107.261719 C 61.542969 104.601562 61.214844 101.945312 58.21875 100.488281 C 55.414062 99.121094 53.285156 100.550781 51.8125 102.855469 C 50.828125 104.402344 50.164062 106.183594 49.492188 107.910156 C 44.347656 121.152344 42.949219 134.914062 44.015625 149.699219 M 222.992188 114.574219 C 227.164062 128.179688 227.40625 141.941406 224.925781 155.890625 C 223.886719 161.710938 221.40625 167.007812 219.761719 172.597656 C 218.671875 176.296875 220.601562 178.476562 224.429688 178.328125 C 227.132812 178.222656 227.96875 176.324219 228.773438 174.324219 C 235.449219 157.71875 238.15625 140.644531 234.589844 122.886719 C 233.230469 116.101562 231.234375 109.507812 228.222656 103.238281 C 226.761719 100.199219 224.445312 98.984375 221.429688 100.335938 C 218.355469 101.710938 218.34375 104.199219 219.808594 107.015625 C 220.96875 109.246094 221.785156 111.652344 222.992188 114.574219 Z M 222.992188 114.574219 " fill-opacity="1" fill-rule="nonzero"/><path fill="#3730a3" d="M 186.363281 152 C 178.585938 186.539062 140.289062 196.707031 115.597656 182.148438 C 98.703125 172.191406 89.230469 151.261719 92.851562 131.183594 C 96.359375 111.722656 112.257812 96.21875 131.945312 93.0625 C 158.386719 88.828125 182.820312 106.152344 187.207031 132.316406 C 188.289062 138.796875 187.917969 145.269531 186.363281 152 M 120.582031 163.820312 C 122.691406 169.582031 125.820312 170.328125 130.808594 166.578125 C 139.277344 160.199219 147.75 153.816406 156.433594 147.734375 C 165.015625 141.722656 165.136719 139.28125 156.457031 133.136719 C 147.90625 127.085938 139.339844 121.058594 130.84375 114.929688 C 128.863281 113.5 127.074219 111.789062 124.433594 113.140625 C 121.921875 114.429688 121.015625 116.667969 120.988281 119.394531 C 120.828125 133.980469 120.648438 148.566406 120.582031 163.820312 Z M 120.582031 163.820312 " fill-opacity="1" fill-rule="nonzero"/></svg>