<svg width="56" height="56" xmlns="http://www.w3.org/2000/svg"><defs><linearGradient x1="50%" y1="0%" x2="50%" y2="100%" id="b"><stop stop-color="#C7D2FE" offset="0%"/><stop stop-color="#A5B4FC" offset="100%"/></linearGradient><linearGradient x1="0%" y1="23.824%" x2="100%" y2="50%" id="c"><stop stop-color="#C7D2FE" offset="0%"/><stop stop-color="#C7D2FE" offset="100%"/></linearGradient><linearGradient x1="50%" y1="100%" x2="50%" y2="0%" id="d"><stop stop-color="#C7D2FE" offset="0%"/><stop stop-color="#A5B4FC" offset="100%"/></linearGradient><filter x="-100%" y="-100%" width="300%" height="300%" filterUnits="objectBoundingBox" id="a"><feGaussianBlur stdDeviation="8" in="SourceGraphic"/></filter><filter x="-50%" y="-50%" width="200%" height="200%" filterUnits="objectBoundingBox" id="e"><feGaussianBlur stdDeviation="4" in="SourceGraphic"/></filter></defs><g fill="none" fill-rule="evenodd"><g><circle fill="#6366F1" cx="28" cy="28" r="28"/><circle fill-opacity=".8" fill="#312E81" filter="url(#a)" cx="28" cy="28" r="12"/></g><g transform="rotate(21 -13.072 56.536)"><path d="m12.648 20.678 2.76 9.253L0 13.94l12.648 6.737Z" fill-opacity=".265" fill="#A5B4FC"/><path fill="url(#b)" opacity=".8" d="M12.648 20.678 0 13.94 15.408 0v2.676l-1.816 15.02z"/><path fill="url(#c)" d="M12.648 20.678 15.408 0l15.589 15.642z"/><path d="M30.997 15.642 15.407 29.93l-2.76-9.253 18.35-5.036Z" fill="url(#d)" opacity=".4"/><circle fill-opacity=".32" fill="#38BDF8" style="mix-blend-mode:overlay" filter="url(#e)" cx="15.542" cy="15" r="12"/></g></g></svg>