<svg width="56" height="56" xmlns="http://www.w3.org/2000/svg"><defs><filter x="-100%" y="-100%" width="300%" height="300%" filterUnits="objectBoundingBox" id="a"><feGaussianBlur stdDeviation="8" in="SourceGraphic"/></filter><filter x="-50%" y="-50%" width="200%" height="200%" filterUnits="objectBoundingBox" id="c"><feGaussianBlur stdDeviation="4" in="SourceGraphic"/></filter><linearGradient x1="50%" y1="0%" x2="100%" y2="100%" id="b"><stop stop-color="#E0E7FF" offset="0%"/><stop stop-color="#A5B4FC" offset="100%"/></linearGradient></defs><g fill="none" fill-rule="evenodd"><g><circle fill="#6366F1" cx="28" cy="28" r="28"/><circle fill-opacity=".8" fill="#312E81" filter="url(#a)" cx="28" cy="28" r="12"/></g><g transform="rotate(-9 110.125 -74.297)"><path d="M27.236 17.839 14.206.249A.647.647 0 0 0 13.682 0v28c.13 0 .261-.04.374-.118l13.03-9.121a.653.653 0 0 0 .15-.922Z" fill-opacity=".72" fill="#A5B4FC"/><path d="M13.158.249.128 17.839a.651.651 0 0 0 .15.922l13.03 9.122a.66.66 0 0 0 .374.117V0c-.2 0-.4.083-.524.249Z" fill="url(#b)"/><circle fill-opacity=".32" fill="#38BDF8" style="mix-blend-mode:overlay" filter="url(#c)" cx="13.012" cy="13.844" r="12"/></g></g></svg>