<svg width="56" height="56" xmlns="http://www.w3.org/2000/svg" xmlns:xlink="http://www.w3.org/1999/xlink"><defs><filter x="-100%" y="-100%" width="300%" height="300%" filterUnits="objectBoundingBox" id="a"><feGaussianBlur stdDeviation="8" in="SourceGraphic"/></filter><filter x="-3.6%" y="-6.3%" width="107.1%" height="112.5%" filterUnits="objectBoundingBox" id="d"><feGaussianBlur stdDeviation=".5" in="SourceAlpha" result="shadowBlurInner1"/><feOffset dy="1" in="shadowBlurInner1" result="shadowOffsetInner1"/><feComposite in="shadowOffsetInner1" in2="SourceAlpha" operator="arithmetic" k2="-1" k3="1" result="shadowInnerInner1"/><feColorMatrix values="0 0 0 0 1 0 0 0 0 1 0 0 0 0 1 0 0 0 0.24 0" in="shadowInnerInner1"/></filter><filter x="-500.8%" y="-876.4%" width="1101.6%" height="1852.7%" filterUnits="objectBoundingBox" id="f"><feGaussianBlur stdDeviation="16" in="SourceGraphic"/></filter><filter x="-50%" y="-50%" width="200%" height="200%" filterUnits="objectBoundingBox" id="g"><feGaussianBlur stdDeviation="4" in="SourceGraphic"/></filter><linearGradient x1="98.16%" y1="49.974%" x2="0%" y2="50%" id="b"><stop stop-color="#818CF8" offset="0%"/><stop stop-color="#818CF8" offset="50.119%"/><stop stop-color="#F9F9F9" offset="100%"/></linearGradient><linearGradient x1="109.459%" y1="50%" x2="0%" y2="56.145%" id="e"><stop stop-color="#818CF8" offset="0%"/><stop stop-color="#EEF2FF" offset="100%"/></linearGradient><path d="M23.06 8.636c-2.44-1.167-5.587-1.872-9.025-1.872-3.437 0-6.585.705-9.025 1.872H0v6.116c0 4.41 6.284 7.987 14.035 7.987 7.752 0 14.035-3.576 14.035-7.987V8.636h-5.01Z" id="c"/></defs><g fill="none" fill-rule="evenodd"><g><circle fill="#6366F1" cx="28" cy="28" r="28"/><circle fill-opacity=".8" fill="#312E81" filter="url(#a)" cx="28" cy="28" r="12"/></g><g transform="rotate(-25 57.729 -11.705)"><use fill="url(#b)" xlink:href="#c"/><use fill="#000" filter="url(#d)" xlink:href="#c"/><path d="M28.11 8.727c0 4.411-6.284 7.987-14.035 7.987C6.323 16.714.04 13.138.04 8.727S6.323.74 14.075.74c7.751 0 14.035 3.577 14.035 7.988" fill="url(#e)"/><path d="M24.39 9.036c0 1.512-2.147 2.738-4.793 2.738-2.647 0-4.793-1.226-4.793-2.738 0-1.513 2.146-2.74 4.793-2.74 2.646 0 4.792 1.227 4.792 2.74" fill="#D6F1FF" style="mix-blend-mode:overlay" filter="url(#f)"/><circle fill-opacity=".32" fill="#38BDF8" style="mix-blend-mode:overlay" filter="url(#g)" cx="14" cy="12" r="12"/></g></g></svg>