<svg width="56" height="56" xmlns="http://www.w3.org/2000/svg" xmlns:xlink="http://www.w3.org/1999/xlink"><defs><linearGradient x1="27.56%" y1=".142%" x2="59.658%" y2="100%" id="d"><stop stop-color="#E0E7FF" offset="0%"/><stop stop-color="#C7D2FE" offset="58.438%"/><stop stop-color="#A5B4FC" offset="100%"/></linearGradient><linearGradient x1="68.479%" y1="83.682%" x2="3.177%" y2="14.149%" id="e"><stop stop-color="#818CF8" stop-opacity="0" offset="0%"/><stop stop-color="#6366F1" stop-opacity=".64" offset="100%"/></linearGradient><linearGradient x1="47.38%" y1="24.752%" x2="58.769%" y2="81.336%" id="g"><stop stop-color="#6366F1" stop-opacity=".48" offset="0%"/><stop stop-color="#6366F1" stop-opacity="0" offset="100%"/></linearGradient><filter x="-100%" y="-100%" width="300%" height="300%" filterUnits="objectBoundingBox" id="a"><feGaussianBlur stdDeviation="8" in="SourceGraphic"/></filter><filter x="-836.8%" y="-796.7%" width="1767.4%" height="1693.3%" filterUnits="objectBoundingBox" id="b"><feOffset dy="32" in="SourceAlpha" result="shadowOffsetOuter1"/><feGaussianBlur stdDeviation="44" in="shadowOffsetOuter1" result="shadowBlurOuter1"/><feColorMatrix values="0 0 0 0 0.168627451 0 0 0 0 0.168627451 0 0 0 0 0.321568627 0 0 0 0.24 0" in="shadowBlurOuter1" result="shadowMatrixOuter1"/><feMerge><feMergeNode in="shadowMatrixOuter1"/><feMergeNode in="SourceGraphic"/></feMerge></filter><filter x="-50%" y="-50%" width="200%" height="200%" filterUnits="objectBoundingBox" id="h"><feGaussianBlur stdDeviation="4" in="SourceGraphic"/></filter><path id="c" d="M17.153 30 0 20.07 7.306 0l17.259 2.958L28.8 18.169z"/></defs><g fill="none" fill-rule="evenodd"><g><circle fill="#6366F1" cx="28" cy="28" r="28"/><circle fill="#312E81" filter="url(#a)" cx="28" cy="28" r="12"/></g><g filter="url(#b)" transform="rotate(27 -5.674 50.657)"><mask id="f" fill="#fff"><use xlink:href="#c"/></mask><use fill="url(#d)" xlink:href="#c"/><path d="m7.05-.398 16.218 14.077L33.444 21.3l5.406-10.055-.636-6.668L30.37-.398l-6.042-2.223-10.6-.529L7.05-.398Z" fill="url(#e)" mask="url(#f)"/><path d="M29.496 11.7-1.35 20.437l4.558 7.895c4.24 2.596 6.501 4 6.784 4.21.283.21 5.3.21 15.052 0l5.406-6.737-.954-14.105Z" fill="url(#g)" mask="url(#f)"/><path fill-opacity=".32" fill="#6366F1" mask="url(#f)" d="m24.809 2.25-1.488 11.396L16.2 32.85l13.817-3.482 4.039-7.703.744-12.873z"/><circle fill-opacity=".32" fill="#38BDF8" style="mix-blend-mode:overlay" filter="url(#h)" cx="13.904" cy="15" r="12"/></g></g></svg>