<svg width="48" height="44" xmlns="http://www.w3.org/2000/svg"><defs><filter x="-107.2%" y="-69.7%" width="314.4%" height="239.3%" filterUnits="objectBoundingBox" id="a"><feGaussianBlur stdDeviation="4" in="SourceGraphic"/></filter><filter x="-89.3%" y="-69.7%" width="278.6%" height="239.3%" filterUnits="objectBoundingBox" id="b"><feGaussianBlur stdDeviation="4" in="SourceGraphic"/></filter><filter x="-79%" y="-69.7%" width="257.9%" height="239.3%" filterUnits="objectBoundingBox" id="c"><feGaussianBlur stdDeviation="4" in="SourceGraphic"/></filter><filter x="-153%" y="-111.4%" width="406%" height="322.7%" filterUnits="objectBoundingBox" id="d"><feGaussianBlur stdDeviation="4" in="SourceGraphic"/></filter><filter x="-89.3%" y="-69.7%" width="278.6%" height="239.3%" filterUnits="objectBoundingBox" id="e"><feGaussianBlur stdDeviation="4" in="SourceGraphic"/></filter><filter x="-79%" y="-69.7%" width="257.9%" height="239.3%" filterUnits="objectBoundingBox" id="f"><feGaussianBlur stdDeviation="4" in="SourceGraphic"/></filter><filter x="-153%" y="-111.4%" width="406%" height="322.7%" filterUnits="objectBoundingBox" id="g"><feGaussianBlur stdDeviation="4" in="SourceGraphic"/></filter></defs><g fill-rule="nonzero" fill="none"><g opacity=".64"><path fill="#E24329" filter="url(#a)" d="m15.198 28 5.597-17.225H9.601L15.198 28z" transform="translate(9 8)"/><path fill="#FC6D26" filter="url(#b)" d="M15.198 28 9.601 10.775H1.758z" transform="translate(9 8)"/><path d="M1.758 10.775.057 16.009c-.155.478.015 1 .42 1.296L15.199 28 1.758 10.775Z" fill="#FCA326" filter="url(#c)" transform="translate(9 8)"/><path d="M1.758 10.775H9.6L6.231.4c-.174-.534-.93-.533-1.103 0l-3.37 10.375Z" fill="#E24329" filter="url(#d)" transform="translate(9 8)"/><path fill="#FC6D26" filter="url(#e)" d="m15.198 28 5.597-17.225h7.844L15.198 28z" transform="translate(9 8)"/><path d="m28.639 10.775 1.7 5.234c.156.478-.014 1-.42 1.296L15.199 28l13.44-17.225Z" fill="#FCA326" filter="url(#f)" transform="translate(9 8)"/><path d="M28.639 10.775h-7.844L24.165.4c.174-.534.93-.533 1.103 0l3.37 10.375Z" fill="#E24329" filter="url(#g)" transform="translate(9 8)"/></g><path fill="#E24329" d="m24.198 36 5.597-17.225H18.601L24.198 36z"/><path fill="#FC6D26" d="m24.198 36-5.597-17.225h-7.843z"/><path d="m10.758 18.775-1.701 5.234c-.155.478.015 1 .42 1.296L24.199 36l-13.44-17.225Z" fill="#FCA326"/><path d="M10.758 18.775H18.6L15.231 8.4c-.174-.534-.93-.533-1.103 0l-3.37 10.375Z" fill="#E24329"/><path fill="#FC6D26" d="m24.198 36 5.597-17.225h7.844L24.198 36z"/><path d="m37.639 18.775 1.7 5.234c.156.478-.014 1-.42 1.296L24.199 36l13.44-17.225Z" fill="#FCA326"/><path d="M37.639 18.775h-7.844L33.165 8.4c.174-.534.93-.533 1.103 0l3.37 10.375Z" fill="#E24329"/></g></svg>