<svg width="49" height="48" xmlns="http://www.w3.org/2000/svg"><defs><filter x="-54.9%" y="-65.8%" width="209.9%" height="231.5%" filterUnits="objectBoundingBox" id="b"><feGaussianBlur stdDeviation="4" in="SourceGraphic"/></filter><filter x="-44.8%" y="-123.1%" width="189.7%" height="346.1%" filterUnits="objectBoundingBox" id="d"><feGaussianBlur stdDeviation="4" in="SourceGraphic"/></filter><filter x="-74.1%" y="-42.9%" width="248.3%" height="185.7%" filterUnits="objectBoundingBox" id="f"><feGaussianBlur stdDeviation="4" in="SourceGraphic"/></filter><filter x="-44.8%" y="-42.9%" width="189.7%" height="185.7%" filterUnits="objectBoundingBox" id="g"><feGaussianBlur stdDeviation="4" in="SourceGraphic"/></filter><linearGradient x1="0%" y1="-21.618%" x2="100%" y2="121.618%" id="a"><stop stop-color="#F6C338" offset="0%"/><stop stop-color="#FFD351" offset="52.3%"/><stop stop-color="#F6C338" offset="100%"/></linearGradient><linearGradient x1="100%" y1="-326.611%" x2="0%" y2="426.611%" id="c"><stop stop-color="#286EE6" offset="0%"/><stop stop-color="#4286FB" offset="52.1%"/><stop stop-color="#286EE6" offset="100%"/></linearGradient><linearGradient x1="95.742%" y1="0%" x2="8.1%" y2="100%" id="e"><stop stop-color="#069B5A" offset="0%"/><stop stop-color="#11AA62" offset="53.1%"/><stop stop-color="#069B5A" offset="100%"/></linearGradient></defs><g fill-rule="nonzero" fill="none"><g opacity=".64"><path fill="url(#a)" filter="url(#b)" d="M10.535 0H21.79l10.586 18.249H21.095z" transform="translate(8 10)"/><path fill="url(#c)" filter="url(#d)" d="M32.376 18.249 26.735 28H5.615l5.653-9.751z" transform="translate(8 10)"/><path fill="url(#e)" filter="url(#f)" d="M5.615 28 0 18.249 10.535 0l5.653 9.776z" transform="translate(8 10)"/><path d="m5.615 28 10.51-9.75h-4.857L5.615 28Zm26.76-9.75H21.108l-2.478-4.275 13.747 4.274ZM10.536 0l3.25 13.911 2.403-4.135L10.535 0Z" fill="#000" opacity=".1" filter="url(#g)" transform="translate(8 10)"/></g><path fill="url(#a)" d="M10.535 0H21.79l10.586 18.249H21.095z" transform="translate(8 10)"/><path fill="url(#c)" d="M32.376 18.249 26.735 28H5.615l5.653-9.751z" transform="translate(8 10)"/><path fill="url(#e)" d="M5.615 28 0 18.249 10.535 0l5.653 9.776z" transform="translate(8 10)"/><path d="m13.615 38 10.51-9.75h-4.857L13.615 38Zm26.76-9.75H29.108l-2.478-4.275 13.747 4.274ZM18.536 10l3.25 13.911 2.403-4.135L18.535 10Z" fill="#000" opacity=".1"/></g></svg>