<svg width="36" height="46" xmlns="http://www.w3.org/2000/svg"><defs><filter x="-128.6%" y="-128.6%" width="357.1%" height="357.1%" filterUnits="objectBoundingBox" id="a"><feGaussianBlur stdDeviation="4" in="SourceGraphic"/></filter><filter x="-128.6%" y="-128.6%" width="357.1%" height="357.1%" filterUnits="objectBoundingBox" id="b"><feGaussianBlur stdDeviation="4" in="SourceGraphic"/></filter><filter x="-128.6%" y="-128.6%" width="357.1%" height="357.1%" filterUnits="objectBoundingBox" id="c"><feGaussianBlur stdDeviation="4" in="SourceGraphic"/></filter><filter x="-128.6%" y="-128.6%" width="357.1%" height="357.1%" filterUnits="objectBoundingBox" id="d"><feGaussianBlur stdDeviation="4" in="SourceGraphic"/></filter><filter x="-128.6%" y="-128.6%" width="357.1%" height="357.1%" filterUnits="objectBoundingBox" id="e"><feGaussianBlur stdDeviation="4" in="SourceGraphic"/></filter></defs><g fill-rule="nonzero" fill="none"><g opacity=".64"><path d="M4.667 28a4.668 4.668 0 0 0 4.666-4.667v-4.666H4.667A4.668 4.668 0 0 0 0 23.333 4.668 4.668 0 0 0 4.667 28Z" fill="#0ACF83" filter="url(#a)" transform="translate(9 9)"/><path d="M0 14a4.668 4.668 0 0 1 4.667-4.667h4.666v9.334H4.667A4.668 4.668 0 0 1 0 14Z" fill="#A259FF" filter="url(#b)" transform="translate(9 9)"/><path d="M0 4.667A4.668 4.668 0 0 1 4.667 0h4.666v9.333H4.667A4.668 4.668 0 0 1 0 4.667Z" fill="#F24E1E" filter="url(#c)" transform="translate(9 9)"/><path d="M9.333 0H14a4.668 4.668 0 0 1 4.667 4.667A4.668 4.668 0 0 1 14 9.333H9.333V0Z" fill="#FF7262" filter="url(#d)" transform="translate(9 9)"/><path d="M18.667 14A4.668 4.668 0 0 1 14 18.667 4.668 4.668 0 0 1 9.333 14 4.668 4.668 0 0 1 14 9.333 4.668 4.668 0 0 1 18.667 14Z" fill="#1ABCFE" filter="url(#e)" transform="translate(9 9)"/></g><path d="M13.667 37a4.668 4.668 0 0 0 4.666-4.667v-4.666h-4.666A4.668 4.668 0 0 0 9 32.333 4.668 4.668 0 0 0 13.667 37Z" fill="#0ACF83"/><path d="M9 23a4.668 4.668 0 0 1 4.667-4.667h4.666v9.334h-4.666A4.668 4.668 0 0 1 9 23Z" fill="#A259FF"/><path d="M9 13.667A4.668 4.668 0 0 1 13.667 9h4.666v9.333h-4.666A4.668 4.668 0 0 1 9 13.667Z" fill="#F24E1E"/><path d="M18.333 9H23a4.668 4.668 0 0 1 4.667 4.667A4.668 4.668 0 0 1 23 18.333h-4.667V9Z" fill="#FF7262"/><path d="M27.667 23A4.668 4.668 0 0 1 23 27.667 4.668 4.668 0 0 1 18.333 23 4.668 4.668 0 0 1 23 18.333 4.668 4.668 0 0 1 27.667 23Z" fill="#1ABCFE"/></g></svg>