<svg width="48" height="46" xmlns="http://www.w3.org/2000/svg"><defs><radialGradient cx="50.014%" cy="54.715%" fx="50.014%" fy="54.715%" r="71.729%" gradientTransform="matrix(.92431 0 0 1 .038 0)" id="a"><stop stop-color="#FFB900" offset="0%"/><stop stop-color="#F95D8F" offset="60%"/><stop stop-color="#F95353" offset="99.9%"/></radialGradient><filter x="-39.6%" y="-42.9%" width="179.2%" height="185.7%" filterUnits="objectBoundingBox" id="b"><feGaussianBlur stdDeviation="4" in="SourceGraphic"/></filter></defs><g transform="translate(-790 -3592)" fill="url(#a)" fill-rule="nonzero"><path d="M23.705 14.823A6.588 6.588 0 1 0 23.704 28a6.588 6.588 0 0 0 0-13.176Zm-17.117 0a6.588 6.588 0 1 0 0 13.177 6.588 6.588 0 0 0 0-13.176Zm15.147-8.235a6.589 6.589 0 1 1-13.177 0 6.589 6.589 0 0 1 13.176 0Z" opacity=".64" filter="url(#b)" transform="translate(799 3601)"/><path d="M822.705 3615.823a6.588 6.588 0 1 0-.001 13.176 6.588 6.588 0 0 0 0-13.176Zm-17.117 0a6.588 6.588 0 1 0 0 13.177 6.588 6.588 0 0 0 0-13.176Zm15.147-8.235a6.589 6.589 0 1 1-13.177 0 6.589 6.589 0 0 1 13.176 0Z"/></g></svg>