<svg width="53" height="45" xmlns="http://www.w3.org/2000/svg"><defs><filter x="-40.6%" y="-97.1%" width="181.2%" height="294.1%" filterUnits="objectBoundingBox" id="a"><feGaussianBlur stdDeviation="4" in="SourceGraphic"/></filter><filter x="-76.8%" y="-61.5%" width="253.5%" height="223%" filterUnits="objectBoundingBox" id="b"><feGaussianBlur stdDeviation="4" in="SourceGraphic"/></filter><filter x="-79.8%" y="-90.1%" width="259.6%" height="280.1%" filterUnits="objectBoundingBox" id="c"><feGaussianBlur stdDeviation="4" in="SourceGraphic"/></filter><filter x="-81.2%" y="-135.7%" width="262.5%" height="371.3%" filterUnits="objectBoundingBox" id="d"><feGaussianBlur stdDeviation="4" in="SourceGraphic"/></filter></defs><g fill-rule="nonzero" fill="none"><g opacity=".64"><path d="M14.946.354 2.467 5.517c-.694.287-.687 1.273.012 1.55l12.53 4.969a4.65 4.65 0 0 0 3.428 0l12.531-4.97c.698-.276.706-1.262.012-1.549L18.5.353a4.65 4.65 0 0 0-3.555 0" fill="#FCB400" filter="url(#a)" transform="translate(10 9)"/><path d="M17.835 14.75v12.413c0 .59.596.995 1.144.777l13.964-5.42a.836.836 0 0 0 .527-.777V9.33a.836.836 0 0 0-1.144-.778l-13.963 5.42a.836.836 0 0 0-.528.777" fill="#18BFFF" filter="url(#b)" transform="translate(10 9)"/><path d="m14.575 15.39-4.144 2-.421.204-8.748 4.192C.708 22.053 0 21.649 0 21.033V9.382c0-.223.114-.416.268-.56a.95.95 0 0 1 .211-.16.891.891 0 0 1 .76-.058l13.266 5.256c.674.268.727 1.212.07 1.53" fill="#F82B60" filter="url(#c)" transform="translate(10 9)"/><path d="m14.575 15.39-4.144 2L.268 8.823a.95.95 0 0 1 .211-.16.891.891 0 0 1 .76-.058l13.266 5.256c.674.268.727 1.212.07 1.53" fill-opacity=".25" fill="#000" filter="url(#d)" transform="translate(10 9)"/></g><path d="m24.946 9.354-12.479 5.163c-.694.287-.687 1.273.012 1.55l12.53 4.969a4.65 4.65 0 0 0 3.428 0l12.531-4.97c.698-.276.706-1.262.012-1.549L28.5 9.353a4.65 4.65 0 0 0-3.555 0" fill="#FCB400"/><path d="M27.835 23.75v12.413c0 .59.596.995 1.144.777l13.964-5.42a.836.836 0 0 0 .527-.777V18.33a.836.836 0 0 0-1.144-.778l-13.963 5.42a.836.836 0 0 0-.528.777" fill="#18BFFF"/><path d="m24.575 24.39-4.144 2-.421.204-8.748 4.192c-.554.267-1.262-.137-1.262-.753V18.382c0-.223.114-.416.268-.56a.95.95 0 0 1 .211-.16.891.891 0 0 1 .76-.058l13.266 5.256c.674.268.727 1.212.07 1.53" fill="#F82B60"/><path d="m24.575 24.39-4.144 2-10.163-8.568a.95.95 0 0 1 .211-.16.891.891 0 0 1 .76-.058l13.266 5.256c.674.268.727 1.212.07 1.53" fill-opacity=".25" fill="#000"/></g></svg>