<svg xmlns="http://www.w3.org/2000/svg" xmlns:xlink="http://www.w3.org/1999/xlink" width="1024" zoomAndPan="magnify" viewBox="0 0 768 767.999994" height="1024" preserveAspectRatio="xMidYMid meet" version="1.0"><path fill="#000000" d="M 33.28125 580.472656 C 33.375 445.089844 33.414062 310.777344 33.59375 176.472656 C 33.671875 113.976562 86.390625 51.960938 148.070312 43.230469 C 171.792969 39.878906 195.992188 42.566406 219.960938 42.128906 C 312.753906 40.441406 405.542969 41.40625 498.335938 41.441406 C 531.449219 41.457031 564.59375 43.097656 597.65625 42.078125 C 629.207031 41.121094 655.054688 53.246094 678.464844 72.34375 C 714.519531 101.761719 731.953125 139.640625 731.625 186.609375 C 731.023438 274.28125 731.007812 361.96875 732.078125 449.632812 C 732.625 494.375 731.335938 539.070312 731.398438 583.792969 C 731.472656 642.535156 690.214844 699.273438 634.855469 718.863281 C 614.304688 726.128906 593.320312 725.839844 572.398438 726.320312 C 531.3125 727.257812 490.199219 726.960938 449.097656 726.976562 C 358.824219 727.007812 268.558594 726.734375 178.296875 726.945312 C 92.054688 727.136719 33.183594 654.398438 33.28125 580.472656 M 569.023438 306.351562 C 567.191406 302.800781 565.40625 299.214844 563.519531 295.6875 C 527.601562 228.855469 470.695312 190.910156 396.320312 184.984375 C 328.03125 179.535156 269.207031 204.617188 225.007812 258.777344 C 195.800781 294.566406 180.039062 336.039062 179.289062 382.175781 C 178.800781 412.246094 186.777344 440.945312 199.527344 468.441406 C 237.695312 550.753906 328.742188 599.265625 417.871094 583.664062 C 473.921875 573.855469 517.367188 543.824219 549.128906 497.367188 C 589.617188 438.136719 597.214844 374.734375 569.023438 306.351562 M 533.359375 673.847656 C 551.921875 673.824219 570.480469 673.808594 589.03125 673.769531 C 632.472656 673.679688 670.464844 641.238281 677.679688 598.320312 C 681.574219 575.160156 678.824219 551.855469 679.625 528.632812 C 679.878906 521.175781 679.425781 513.296875 671.582031 509.847656 C 663.726562 506.398438 658.769531 512.664062 653.894531 517.527344 C 620.910156 550.40625 588.015625 583.375 555.015625 616.230469 C 542.382812 628.808594 529.496094 641.128906 516.808594 653.65625 C 513.105469 657.3125 510.039062 661.304688 512.382812 667.144531 C 514.695312 672.902344 519.257812 674.105469 524.75 673.839844 C 526.929688 673.726562 529.121094 673.832031 533.359375 673.847656 M 190.144531 673.96875 C 206.855469 673.894531 223.566406 673.769531 240.28125 673.808594 C 245.726562 673.816406 250.632812 672.769531 252.992188 667.359375 C 255.480469 661.671875 251.910156 657.902344 248.144531 654.128906 C 202.207031 608.128906 156.375 562.007812 110.382812 516.0625 C 106.3125 511.992188 102.800781 505.070312 95.175781 508.632812 C 87.871094 512.046875 86.9375 518.808594 87.023438 526.175781 C 87.273438 545.425781 87.246094 564.679688 87.097656 583.929688 C 86.960938 600.761719 91.535156 616.304688 100.34375 630.390625 C 120.558594 662.71875 150.214844 676.640625 190.144531 673.96875 M 668.535156 258.464844 C 679.238281 256.472656 679.425781 247.894531 679.535156 239.921875 C 679.832031 218.847656 680.113281 197.753906 679.542969 176.6875 C 678.390625 134.183594 637.113281 94.359375 594.632812 94.246094 C 572.105469 94.191406 549.566406 94.160156 527.039062 94.246094 C 521.761719 94.273438 515.449219 92.902344 513.0625 99.71875 C 510.894531 105.921875 515.023438 109.871094 519.207031 113.664062 C 565.582031 155.648438 607.9375 201.6875 652.367188 245.632812 C 656.96875 250.175781 660.230469 256.238281 668.535156 258.464844 M 103.414062 131.398438 C 95.039062 143.542969 88.097656 156.703125 87.464844 171.441406 C 86.40625 196.136719 87.121094 220.902344 87 245.640625 C 86.976562 251.289062 89 255.710938 94.273438 257.9375 C 99.855469 260.296875 104.230469 257.335938 107.832031 253.503906 C 112.566406 248.480469 116.726562 242.921875 121.496094 237.929688 C 162.414062 195.03125 203.976562 152.785156 247.167969 112.152344 C 250.488281 109.023438 255.472656 106.183594 253.375 100.511719 C 251.03125 94.167969 245.078125 94.335938 239.542969 94.328125 C 220.632812 94.304688 201.710938 94.496094 182.800781 94.246094 C 150.921875 93.824219 124.800781 105.703125 103.414062 131.398438 M 279.816406 589.398438 C 272.816406 585.984375 265.878906 583.871094 260.832031 592.289062 C 256.785156 599.046875 259.960938 606.902344 268.609375 612.320312 C 270.457031 613.472656 272.398438 614.472656 274.351562 615.441406 C 323.761719 640.070312 375.351562 648.246094 429.792969 636.742188 C 454.9375 631.433594 478.359375 622.046875 500.503906 609.238281 C 506.703125 605.65625 509.191406 599.777344 506.28125 593.449219 C 503.152344 586.65625 496.886719 584.761719 489.703125 587.472656 C 485.296875 589.136719 480.855469 590.792969 476.601562 592.816406 C 411.03125 624.023438 345.984375 620.945312 279.816406 589.398438 M 372.289062 155.046875 C 381.367188 154.273438 390.40625 154.632812 399.519531 155.128906 C 431.167969 156.824219 459.574219 168.609375 487.304688 182.558594 C 494.953125 186.40625 501.542969 186.761719 505.847656 178.566406 C 509.921875 170.808594 505.726562 165.441406 499.070312 161.496094 C 467.574219 142.816406 433.527344 131.769531 397.039062 129.496094 C 351.832031 126.679688 310.03125 139.328125 270.367188 160.078125 C 267.503906 161.574219 264.695312 163.496094 262.441406 165.785156 C 258.441406 169.847656 257.808594 174.839844 260.679688 179.808594 C 263.351562 184.441406 267.769531 186.0625 272.855469 184.832031 C 275.984375 184.0625 278.960938 182.566406 281.902344 181.183594 C 310.039062 167.984375 339 157.640625 372.289062 155.046875 M 120.511719 409.863281 C 124 434.152344 132.832031 456.863281 141.046875 479.777344 C 143.855469 487.609375 149.566406 489.40625 156.648438 487.777344 C 164.199219 486.039062 167.582031 480.632812 166.128906 473.0625 C 165.320312 468.847656 163.3125 464.847656 161.664062 460.824219 C 147.0625 425.089844 141.449219 388.3125 148.367188 349.953125 C 151.855469 330.59375 155.769531 311.464844 164.800781 293.679688 C 168.503906 286.390625 167.601562 279.121094 159.398438 275.128906 C 151.71875 271.382812 145.894531 275.304688 141.863281 281.609375 C 139.160156 285.847656 137.34375 290.71875 135.503906 295.457031 C 121.425781 331.710938 117.59375 369.382812 120.511719 409.863281 M 610.535156 313.695312 C 621.96875 350.953125 622.625 388.632812 615.832031 426.816406 C 612.992188 442.753906 606.199219 457.265625 601.695312 472.566406 C 598.710938 482.695312 603.992188 488.664062 614.472656 488.257812 C 621.878906 487.96875 624.167969 482.769531 626.367188 477.296875 C 644.648438 431.824219 652.0625 385.078125 642.296875 336.457031 C 638.566406 317.878906 633.113281 299.824219 624.863281 282.664062 C 620.863281 274.335938 614.519531 271.015625 606.265625 274.710938 C 597.847656 278.480469 597.816406 285.289062 601.824219 293.007812 C 605 299.113281 607.238281 305.695312 610.535156 313.695312 Z M 610.535156 313.695312 " fill-opacity="1" fill-rule="nonzero"/><path fill="#000000" d="M 510.257812 416.167969 C 488.960938 510.734375 384.105469 538.574219 316.496094 498.710938 C 270.246094 471.449219 244.3125 414.144531 254.222656 359.175781 C 263.824219 305.886719 307.359375 263.441406 361.265625 254.800781 C 433.65625 243.207031 500.550781 290.640625 512.558594 362.273438 C 515.527344 380.023438 514.511719 397.734375 510.257812 416.167969 M 330.144531 448.527344 C 335.929688 464.304688 344.488281 466.351562 358.144531 456.078125 C 381.335938 438.617188 404.535156 421.144531 428.3125 404.488281 C 451.808594 388.03125 452.136719 381.34375 428.367188 364.519531 C 404.960938 347.953125 381.503906 331.449219 358.238281 314.671875 C 352.816406 310.761719 347.921875 306.070312 340.695312 309.777344 C 333.816406 313.304688 331.335938 319.433594 331.257812 326.894531 C 330.824219 366.832031 330.328125 406.769531 330.144531 448.527344 Z M 330.144531 448.527344 " fill-opacity="1" fill-rule="nonzero"/></svg>