<svg xmlns="http://www.w3.org/2000/svg" xmlns:xlink="http://www.w3.org/1999/xlink" width="500" zoomAndPan="magnify" viewBox="0 0 375 374.999991" height="500" preserveAspectRatio="xMidYMid meet" version="1.0"><path fill="#000000" d="M 16.25 283.433594 C 16.296875 217.328125 16.316406 151.746094 16.402344 86.167969 C 16.441406 55.652344 42.183594 25.371094 72.300781 21.109375 C 83.882812 19.472656 95.699219 20.785156 107.402344 20.570312 C 152.710938 19.746094 198.019531 20.21875 243.328125 20.234375 C 259.496094 20.242188 275.679688 21.042969 291.824219 20.546875 C 307.230469 20.078125 319.851562 26 331.28125 35.324219 C 348.886719 49.6875 357.398438 68.183594 357.238281 91.117188 C 356.945312 133.925781 356.9375 176.742188 357.460938 219.546875 C 357.726562 241.394531 357.097656 263.21875 357.128906 285.054688 C 357.164062 313.738281 337.019531 341.441406 309.988281 351.007812 C 299.953125 354.554688 289.707031 354.414062 279.492188 354.648438 C 259.429688 355.105469 239.355469 354.960938 219.285156 354.96875 C 175.207031 354.984375 131.132812 354.851562 87.058594 354.953125 C 44.949219 355.046875 16.203125 319.53125 16.25 283.433594 M 277.84375 149.585938 C 276.949219 147.851562 276.078125 146.101562 275.15625 144.378906 C 257.617188 111.746094 229.832031 93.21875 193.515625 90.324219 C 160.171875 87.664062 131.449219 99.910156 109.867188 126.355469 C 95.605469 143.832031 87.910156 164.082031 87.542969 186.609375 C 87.304688 201.292969 91.199219 215.304688 97.425781 228.730469 C 116.0625 268.921875 160.519531 292.609375 204.039062 284.992188 C 231.40625 280.203125 252.621094 265.539062 268.128906 242.855469 C 287.898438 213.933594 291.609375 182.976562 277.84375 149.585938 M 260.429688 329.027344 C 269.492188 329.015625 278.554688 329.007812 287.613281 328.988281 C 308.824219 328.945312 327.375 313.105469 330.898438 292.148438 C 332.800781 280.839844 331.457031 269.460938 331.847656 258.121094 C 331.972656 254.480469 331.75 250.632812 327.921875 248.949219 C 324.085938 247.265625 321.664062 250.324219 319.285156 252.699219 C 303.179688 268.753906 287.117188 284.851562 271.003906 300.894531 C 264.835938 307.035156 258.542969 313.050781 252.347656 319.167969 C 250.539062 320.953125 249.042969 322.902344 250.1875 325.753906 C 251.316406 328.566406 253.542969 329.152344 256.226562 329.023438 C 257.289062 328.96875 258.359375 329.019531 260.429688 329.027344 M 92.84375 329.085938 C 101.003906 329.050781 109.164062 328.988281 117.324219 329.007812 C 119.984375 329.011719 122.378906 328.5 123.53125 325.859375 C 124.746094 323.082031 123.003906 321.242188 121.164062 319.398438 C 98.734375 296.9375 76.355469 274.417969 53.898438 251.984375 C 51.910156 249.996094 50.195312 246.617188 46.472656 248.355469 C 42.90625 250.023438 42.449219 253.324219 42.492188 256.921875 C 42.613281 266.320312 42.601562 275.722656 42.527344 285.121094 C 42.460938 293.339844 44.695312 300.929688 48.996094 307.808594 C 58.867188 323.59375 73.347656 330.390625 92.84375 329.085938 M 326.433594 126.203125 C 331.660156 125.230469 331.75 121.042969 331.804688 117.148438 C 331.949219 106.859375 332.085938 96.558594 331.808594 86.273438 C 331.246094 65.519531 311.089844 46.074219 290.347656 46.019531 C 279.347656 45.992188 268.34375 45.976562 257.34375 46.019531 C 254.765625 46.03125 251.683594 45.363281 250.519531 48.691406 C 249.460938 51.71875 251.476562 53.648438 253.519531 55.5 C 276.164062 76 296.84375 98.480469 318.539062 119.9375 C 320.785156 122.15625 322.378906 125.117188 326.433594 126.203125 M 50.496094 64.160156 C 46.40625 70.089844 43.015625 76.515625 42.707031 83.710938 C 42.191406 95.769531 42.539062 107.863281 42.480469 119.941406 C 42.46875 122.699219 43.457031 124.859375 46.03125 125.945312 C 48.757812 127.097656 50.894531 125.652344 52.652344 123.78125 C 54.964844 121.328125 56.996094 118.613281 59.324219 116.175781 C 79.304688 95.230469 99.597656 74.601562 120.6875 54.761719 C 122.308594 53.234375 124.742188 51.847656 123.71875 49.078125 C 122.574219 45.980469 119.667969 46.0625 116.964844 46.058594 C 107.730469 46.046875 98.492188 46.140625 89.257812 46.019531 C 73.691406 45.8125 60.9375 51.613281 50.496094 64.160156 M 136.628906 287.792969 C 133.210938 286.125 129.824219 285.09375 127.359375 289.203125 C 125.382812 292.503906 126.933594 296.339844 131.15625 298.984375 C 132.058594 299.546875 133.007812 300.035156 133.960938 300.507812 C 158.085938 312.535156 183.277344 316.527344 209.859375 310.910156 C 222.136719 308.316406 233.574219 303.734375 244.386719 297.480469 C 247.414062 295.730469 248.628906 292.859375 247.207031 289.769531 C 245.679688 286.453125 242.621094 285.527344 239.113281 286.851562 C 236.960938 287.664062 234.792969 288.472656 232.714844 289.460938 C 200.699219 304.699219 168.9375 303.195312 136.628906 287.792969 M 181.78125 75.707031 C 186.214844 75.328125 190.628906 75.503906 195.078125 75.746094 C 210.53125 76.574219 224.402344 82.328125 237.941406 89.140625 C 241.675781 91.019531 244.894531 91.191406 246.996094 87.191406 C 248.984375 83.402344 246.9375 80.78125 243.6875 78.855469 C 228.308594 69.734375 211.683594 64.339844 193.867188 63.230469 C 171.792969 61.855469 151.382812 68.03125 132.015625 78.164062 C 130.617188 78.894531 129.246094 79.832031 128.144531 80.949219 C 126.191406 82.933594 125.882812 85.371094 127.285156 87.796875 C 128.589844 90.058594 130.746094 90.851562 133.230469 90.25 C 134.757812 89.875 136.210938 89.144531 137.648438 88.46875 C 151.386719 82.023438 165.527344 76.972656 181.78125 75.707031 M 58.84375 200.128906 C 60.546875 211.988281 64.859375 223.078125 68.871094 234.265625 C 70.242188 238.089844 73.03125 238.96875 76.488281 238.171875 C 80.175781 237.324219 81.828125 234.683594 81.117188 230.988281 C 80.722656 228.929688 79.742188 226.976562 78.9375 225.011719 C 71.808594 207.5625 69.066406 189.605469 72.445312 170.875 C 74.148438 161.421875 76.058594 152.082031 80.46875 143.398438 C 82.277344 139.839844 81.835938 136.289062 77.832031 134.339844 C 74.082031 132.511719 71.238281 134.425781 69.269531 137.503906 C 67.949219 139.574219 67.0625 141.953125 66.164062 144.265625 C 59.289062 161.96875 57.417969 180.363281 58.84375 200.128906 M 298.113281 153.171875 C 303.695312 171.363281 304.015625 189.761719 300.699219 208.40625 C 299.3125 216.1875 295.996094 223.273438 293.796875 230.746094 C 292.339844 235.691406 294.917969 238.605469 300.035156 238.40625 C 303.652344 238.265625 304.769531 235.726562 305.84375 233.054688 C 314.769531 210.851562 318.390625 188.027344 313.621094 164.285156 C 311.800781 155.214844 309.136719 146.398438 305.109375 138.019531 C 303.15625 133.953125 300.058594 132.332031 296.027344 134.136719 C 291.917969 135.976562 291.902344 139.300781 293.859375 143.070312 C 295.410156 146.050781 296.503906 149.265625 298.113281 153.171875 Z M 298.113281 153.171875 " fill-opacity="1" fill-rule="nonzero"/><path fill="#000000" d="M 249.148438 203.207031 C 238.75 249.382812 187.550781 262.976562 154.539062 243.511719 C 131.957031 230.199219 119.292969 202.21875 124.132812 175.378906 C 128.820312 149.359375 150.078125 128.632812 176.398438 124.414062 C 211.746094 118.753906 244.410156 141.914062 250.273438 176.890625 C 251.722656 185.558594 251.226562 194.207031 249.148438 203.207031 M 161.203125 219.007812 C 164.027344 226.710938 168.207031 227.710938 174.875 222.695312 C 186.199219 214.167969 197.527344 205.636719 209.136719 197.503906 C 220.609375 189.46875 220.769531 186.203125 209.164062 177.988281 C 197.734375 169.898438 186.28125 161.839844 174.921875 153.648438 C 172.273438 151.738281 169.882812 149.449219 166.355469 151.257812 C 162.996094 152.980469 161.785156 155.972656 161.746094 159.617188 C 161.535156 179.117188 161.292969 198.617188 161.203125 219.007812 Z M 161.203125 219.007812 " fill-opacity="1" fill-rule="nonzero"/></svg>